<?xml version="1.0" encoding="UTF-8" standalone="no"?><svg xmlns="http://www.w3.org/2000/svg" xmlns:xlink="http://www.w3.org/1999/xlink" contentScriptType="text/ecmascript" fill="#000000" width="500" zoomAndPan="magnify" contentStyleType="text/css" viewBox="0.0 -9.4 500.0 338.4" height="338.4" preserveAspectRatio="xMidYMid meet" version="1"><g><linearGradient x1="3.759" y1="77.18" x2="501.389" gradientUnits="userSpaceOnUse" y2="317.144" xlink:type="simple" xlink:actuate="onLoad" id="a" xlink:show="other"><stop stop-color="#73c7dd" offset="0"/><stop stop-color="#004081" offset="0.25"/><stop stop-color="#004081" offset="0.75"/><stop stop-color="#004081" offset="1"/></linearGradient><path fill="url(#a)" d="M0.5680419,88.5481033L0.004762,87.2732391 c22.6475239-10.0084229,35.7267761-26.5340233,49.5740738-44.0290298 c7.6287651-9.6376648,15.5167236-19.6039104,25.2863693-28.7347584 c25.5829697-23.9115028,42.9181137-15.9589157,65.9540863,7.0790939 c4.0375214,4.0368404,8.0192566,8.6927433,12.2350006,13.6214428c12.6289063,14.765007,26.9428864,31.5008125,46.060379,33.7586937 c14.646637,1.7306595,29.8504333-6.4940453,43.2637024-13.7506943c3.0844421-1.6680717,5.9981232-3.2443008,8.8349304-4.6661072 c2.7544861-1.3809891,5.523941-2.8572159,8.4560089-4.4212036c13.4880981-7.1927032,28.7769165-15.3412132,44.401825-14.1520653 c18.5406189,1.4177246,32.8879089,14.0785942,46.7617493,26.3231277 c4.3892212,3.8735695,8.5349121,7.5328484,12.7785645,10.8132057c31.1980896,24.118309,60.9294434,14.719429,92.4091797,4.7661057 c14.0384521-4.4395676,28.5544739-9.02948,43.7793579-10.8689842l0.1659851,1.383709 c-15.0942688,1.8231735-29.547699,6.393364-43.5262756,10.8132019 c-31.8334961,10.0669327-61.903656,19.5746613-93.6799927-4.9919662 c-4.2790222-3.3082428-8.4423828-6.9811287-12.8493042-10.8703461 c-13.7010193-12.0928307-27.8701172-24.5972328-45.9454041-25.9789009 c-15.2180786-1.1639786-30.3177795,6.8879318-43.6405945,13.9921951c-2.9401855,1.5680695-5.7171326,3.0490608-8.4866028,4.4368515 c-2.817749,1.4129601-5.7219086,2.9837494-8.7961426,4.6470566c-13.5955963,7.3539314-29.0068665,15.6868019-44.0902557,13.9085274 c-19.6590118-2.3218307-34.1607513-19.2773705-46.9563141-34.2369423 c-4.1973877-4.9076099-8.1621094-9.5431042-12.1608582-13.5418472 c-22.42099-22.4209881-39.2636032-30.1830921-64.0179825-7.0464401 c-9.6934509,9.0594177-17.5480728,18.9841652-25.1448669,28.5816917 C36.7138748,61.7433243,23.5305405,78.3995361,0.5680419,88.5481033z M50.5162735,52.5104332 c7.6593819-9.2090797,15.5799942-18.7310982,25.1836395-27.4694176 c24.7156067-22.4856148,40.964325-15.4167252,64.0601578,6.6103745c4.0164337,3.8307114,8.0410309,8.2981758,12.3023682,13.0282288 c13.0057678,14.4364281,27.7469635,30.7987518,46.8923645,33.0389481 c15.3731842,1.7966461,30.7463684-6.7151413,44.3079529-14.2282562c2.9925842-1.6571884,5.818512-3.2232132,8.5818481-4.6477394 c2.7164001-1.4000359,5.4293823-2.8837509,8.3022461-4.4552193c13.3085327-7.2784195,28.3769226-15.5214882,43.8181458-14.3425484 c18.3093262,1.4061584,32.3736267,14.1636314,45.9753418,26.5006828 c4.3769836,3.9694977,8.5117798,7.7199326,12.7853699,11.1098175 c31.4593201,24.9618683,61.9757385,15.4643402,94.2827148,5.4144211 c13.8466187-4.3089523,28.1667175-8.7641678,42.9589233-10.5751038l-0.1687012-1.3823471 c-14.9173889,1.8252182-29.2973633,6.2994843-43.2052002,10.6268082 c-31.9423218,9.9403915-62.1159058,19.328392-93.0024109-5.1749649 c-4.2368469-3.3619919-8.3553162-7.0967865-12.7146301-11.0506287 c-13.7745056-12.4948807-28.0197449-25.4149399-46.8052673-26.8578339 c-15.8453064-1.217041-31.113739,7.138279-44.5929871,14.5092163c-2.8647156,1.5673866-5.5709076,3.04702-8.2716522,4.4395714 c-2.7817078,1.4340515-5.617157,3.0048409-8.6185913,4.667469c-13.3785858,7.4103928-28.5469971,15.8133316-43.4711914,14.0629501 c-18.6236115-2.1789703-33.1784058-18.3344917-46.0195618-32.5879211 c-4.2790222-4.7504616-8.3213043-9.2369728-12.3751526-13.1037388 C117.5288849,8.5229015,100.1468048,0.915222,74.7624741,24.0110569 C65.0873947,32.813324,57.1348114,42.374115,49.4448166,51.6192551C35.3975143,68.5074463,22.1298237,84.4588776,0,94.4258041 l0.5728039,1.2707825C22.9951515,85.5970001,36.3628464,69.5251617,50.5162735,52.5104332z M50.2482376,63.1848602 c7.7097244-8.5818558,15.6820374-17.455555,25.2149353-25.5945396 c24.5489349-20.9610863,40.8582001-14.4466324,64.1377182,5.9375687c4.0871735,3.5790024,8.1906891,7.734211,12.5356903,12.1336441 c13.2132721,13.379261,28.1891632,28.5442772,46.8291016,30.4245949 c15.7480316,1.5850754,31.0252991-7.2192307,44.5106812-14.9881363c2.9129944-1.6782761,5.6647644-3.2633514,8.3798065-4.7280197 c2.6993866-1.4551392,5.4001465-3.0014343,8.2593994-4.6382103c13.2731323-7.598156,28.3197632-16.2092628,43.8480835-14.9949455 c18.4698486,1.4456139,32.4647827,14.7541199,45.9998169,27.625206c4.349762,4.1361542,8.4587097,8.0437393,12.6942139,11.5492706 c31.1055603,25.749649,62.0682678,16.4827423,94.8500671,6.6709213 c13.7200623-4.1062241,27.9082031-8.3525925,42.4568787-10.0696411l-0.163269-1.3837128 c-14.6697693,1.7313385-28.9164124,5.9953918-42.693634,10.1186295 c-32.4130859,9.7022934-63.026123,18.8664703-93.5629578-6.4096909 c-4.1973877-3.4749222-8.2886353-7.3661728-12.6207275-11.4860077 c-13.7119141-13.0377541-27.8891602-26.5197372-46.8515625-28.0041275 c-15.9487-1.249012-31.2021484,7.4750214-44.6494446,15.1745415c-2.8511047,1.6326942-5.5443573,3.1742325-8.2281036,4.621891 c-2.7327271,1.4735031-5.4919739,3.0633392-8.4138184,4.746376c-13.3030701,7.6648254-28.381012,16.3541641-43.675293,14.809227 c-18.1412811-1.8299789-32.9300995-16.8051987-45.9780579-30.0171013 c-4.3633728-4.4178009-8.4838867-8.5906982-12.60849-12.2023544 c-23.8781586-20.9100666-40.6350555-27.5714626-65.9608841-5.9498138 c-9.6022873,8.1988487-17.606575,17.1079254-25.3462296,25.723114 c-14.1908455,15.7956429-27.594593,30.7150764-49.199234,39.9411659l0.5469529,1.2816696 C22.4475193,94.1291962,35.9519501,79.0981979,50.2482376,63.1848602z M49.9006081,75.4491196 c7.7525826-7.7791138,15.7691154-15.8221741,25.2373924-23.1625023 c24.3877029-18.9045677,40.7697601-13.113945,64.2479095,5.099453c4.1865082,3.2477036,8.3757324,6.9797745,12.8112183,10.9308929 c13.4289246,11.9622116,28.6490479,25.5210724,46.7862396,26.8442307 c16.1772919,1.1891479,31.3348236-7.9866028,44.7134094-16.0745621c2.8313599-1.7116089,5.5055847-3.3286591,8.1736755-4.8477478 c2.7021179-1.5394897,5.4198608-3.1878357,8.2974854-4.9327774c13.2316589-8.0246964,28.20755-17.1344566,43.794342-15.8670769 c18.5814209,1.4939156,32.5396118,15.5779533,46.0392761,29.1987114c4.3184814,4.357254,8.3988647,8.4736938,12.5635986,12.1077957 c15.2901917,13.3384399,30.7463684,17.8405991,46.518219,17.83992c15.9228516-0.000679,32.1668091-4.5905991,48.8733521-9.3124847 c13.5949097-3.8422775,27.6524353-7.8158493,42.0024414-9.3866425l-0.1523743-1.3850632 c-14.4656677,1.5837097-28.5789795,5.5729294-42.2296448,9.4308548 c-32.881134,9.2927551-63.9390869,18.0718918-94.0949707-8.2369461 c-4.1279907-3.6000977-8.1906738-7.6988449-12.4914856-12.0384064 c-13.677887-13.8010406-27.821106-28.071476-46.9168396-29.6068916 c-16.0153809-1.2782631-31.2157898,7.9308167-44.6283569,16.0650444c-2.8688049,1.740181-5.579071,3.3837585-8.2648468,4.9130478 c-2.6837463,1.5286102-5.365448,3.1497421-8.2042999,4.8661118c-13.2003479,7.9797974-28.1585541,17.0194855-43.8916168,15.8779602 c-17.6650696-1.2891464-32.0498047-14.1030807-45.9610443-26.4952393 c-4.4531708-3.9674492-8.6600952-7.7151642-12.8833313-10.9914398 c-23.5135269-18.2406082-40.9888077-24.4570961-65.9554443-5.099453 c-9.5390244,7.3940697-17.5875282,15.4697914-25.3714027,23.2795143 c-14.3071709,14.3547897-27.8211269,27.9129639-48.874733,35.9328995l0.4959312,1.3020782 C21.8685932,103.5743408,35.4845924,89.9127579,49.9006081,75.4491196z M49.9223785,88.9678421 c27.2673721-22.5645294,50.8169632-42.0514297,89.2193146-16.5609741c4.2939911,2.8504105,8.568924,6.0892715,13.0948944,9.5186081 c14.3269043,10.8547058,29.141571,22.078125,46.7705994,22.7271194 c16.6732178,0.6340332,31.0416107-8.5383148,44.9528656-17.3888855c2.7347565-1.7394943,5.3178253-3.3830795,7.9253693-4.9565887 c2.7082367-1.6354141,5.4525299-3.4068909,8.3580475-5.2824478c13.1914978-8.5145035,28.1415405-18.1671371,43.7174377-16.8786697 c18.6698914,1.5428963,33.2485046,17.2290192,46.1127625,31.0681534c4.2776794,4.6021576,8.3172302,8.9492111,12.388092,12.7050858 c15.6643372,14.4575195,31.7273254,19.2161484,48.2474976,19.2147827 c15.4779358-0.000679,31.355896-4.1783371,47.6679077-8.4716492c13.4670105-3.5443039,27.3925476-7.2090225,41.5738525-8.6056595 l-0.1360474-1.3864288c-14.2929077,1.4068375-28.2728577,5.086525-41.7929382,8.6451187 c-33.3464355,8.7757339-64.8384094,17.0616684-94.6160278-10.4199982 c-4.0314026-3.7198257-8.0532837-8.0478287-12.3118896-12.6295776 c-13.0357056-14.0248489-27.811615-29.9205017-47.0189209-31.508297 c-16.0493774-1.3197632-31.2103271,8.4614449-44.586853,17.0970421c-2.8966675,1.8694305-5.6327972,3.6354675-8.3226624,5.2593155 c-2.6218414,1.5823593-5.2117004,3.2300186-7.9532776,4.9742813c-13.7316437,8.7362823-27.92453,17.7630463-44.1535187,17.172554 c-17.1895599-0.6333542-31.8259888-11.7220764-45.9807739-22.4454803 c-4.5436554-3.4429474-8.8356018-6.6947327-13.1663361-9.5689545 c-39.2622299-26.064621-64.3343124-5.3164673-90.8778534,16.6480484 c-14.7976608,12.2452164-30.0987377,24.9067688-48.9604492,30.9654236l0.4258614,1.3265686 C19.6168327,114.0460358,35.0226746,101.29673,49.9223785,88.9678421z M50.8911133,102.2096786 c27.031311-18.8338242,50.3761292-35.0995483,88.0022736-14.4364319c4.3939972,2.4129868,8.7519226,5.1355133,13.364975,8.0178986 c14.5391541,9.0845871,29.5701447,18.4766693,46.6114044,18.4759903c0.0544281,0,0.1102142,0,0.1646271,0 c17.1773224-0.0612335,31.4518433-9.5988922,45.2562714-18.821579c2.5007477-1.6707916,5.0865326-3.3987274,7.609726-5.0110168 c2.706192-1.7286148,5.4715576-3.6266174,8.3988647-5.6355133c13.1574707-9.0281296,28.0680542-19.2569656,43.6589355-17.9433212 c18.7555847,1.5871124,33.3437195,18.3059158,46.216156,33.056633c4.2259827,4.8443451,8.2192688,9.4199753,12.1799316,13.2826538 c15.879303,15.4895172,28.3530884,22.0223389,45.407959,22.0216675c5.9076538-0.0006866,12.3676758-0.7850647,19.7039185-2.2524414 c8.2655029-1.6531067,16.4276428-3.6109772,24.3217163-5.5042267c16.1854553-3.8817368,31.4742737-7.5491791,48.1549683-8.9961548 l-0.1197205-1.3877869c-16.7854614,1.4558182-32.8375854,5.3062592-48.3604431,9.02948 c-7.8804626,1.8898468-16.0289612,3.8443146-24.2686462,5.4926605 c-27.9694214,5.5940247-42.8895264,1.0612488-63.8683167-19.4004974 c-3.9198303-3.8239136-7.8940735-8.3784485-12.102356-13.2010269 c-13.0452271-14.9500427-27.830658-31.8946991-47.1481628-33.5287552 c-16.0820313-1.3653412-31.214386,9.0226822-44.5643921,18.182785c-2.9177856,2.0020905-5.6736298,3.8932953-8.3600922,5.6096649 c-2.5361176,1.6204529-5.1280212,3.3517914-7.6342163,5.0266647 c-13.6329956,9.1083984-27.7299652,18.5270081-44.4875336,18.5868759c-0.0530701,0-0.1054535,0-0.1585083,0 c-16.6419373,0-31.5014954-9.2845993-45.8733063-18.2637405c-4.630722-2.8932724-9.004303-5.6266785-13.4329987-8.0587082 c-38.3826218-21.0787811-63.1982269-3.7892151-89.4696503,14.5146561 c-15.0745392,10.5036774-30.6626987,21.364502-49.9815674,26.3319778l0.3469477,1.3496857 C20.0222855,123.71772,35.71521,112.7834167,50.8911133,102.2096786z M51.7707253,115.3072968 c25.9360466-14.7697678,50.4325981-28.7184296,86.8947754-12.6438675 c4.4837799,1.9769211,8.9315186,4.2137146,13.6404877,6.5811234c14.8425598,7.4620972,30.1796875,15.1711426,46.7542572,14.465683 c17.7099915-0.7626038,31.9062805-10.6703491,45.6351929-20.2522278c2.4055176-1.6789551,4.8062592-3.3545074,7.2185669-4.9769974 c2.6932678-1.811615,5.4674683-3.8232269,8.4036255-5.9518585c13.1309509-9.5199738,28.0102234-20.3025589,43.6392212-18.9664764 c18.8521729,1.6231766,33.4512024,19.3413162,46.3331604,34.9743729 c4.1715393,5.0627213,8.1117859,9.8451538,11.9622192,13.7956009 c16.0806885,16.4936142,28.7367859,23.3230515,46.5903015,23.3223648c5.5743103,0,11.6560974-0.6660004,18.505249-1.9116058 c8.2492065-1.5000458,16.4235535-3.2871704,24.329895-5.0164642c15.5486755-3.3993988,31.6253052-6.9151459,48.2583923-8.180481 l-0.1061401-1.3891449c-16.7296753,1.2721405-32.8552551,4.7987518-48.4502258,8.2090454 c-7.8940735,1.7259064-16.0562134,3.5109863-24.2822571,5.0069427 c-28.5680847,5.1940002-42.8908997,0.4823151-63.8465576-21.0134735 c-3.8109741-3.9089432-7.7335205-8.6689301-11.8860168-13.708519 c-13.0561218-15.8446274-27.852417-33.8035965-47.2882996-35.4764252 c-16.14328-1.3891525-31.2484131,9.562149-44.5766602,19.2263489c-2.9259338,2.1218185-5.6906281,4.1259537-8.3628082,5.9232788 c-2.4197845,1.6272507-4.8266449,3.3075714-7.2396393,4.9912872c-13.5649719,9.4675903-27.5925446,19.256958-44.8970795,20.0025558 c-16.2215118,0.6925354-31.384491-6.9369125-46.0678558-14.3187332c-4.7259674-2.3755722-9.1886749-4.6198502-13.7051239-6.6110611 c-37.1023102-16.3568802-61.8968277-2.2395096-88.145813,12.7084961 c-15.418087,8.7798157-31.3613548,17.858963-50.9305687,21.7372894l0.2707553,1.3660278 C20.2134476,133.2785034,36.2560387,124.1422195,51.7707253,115.3072968z M48.622345,126.9565735 c7.8831978-4.151123,16.0344315-8.4430771,25.0183334-12.1418076c19.7263641-8.1206207,38.5112-7.701561,64.8384171,1.4469757 c4.5885468,1.5952759,9.167572,3.4300232,14.0146484,5.3729248c15.0486755,6.0314484,30.6116638,12.264946,46.5875854,11.0574265 c18.2147675-1.3803101,32.3709106-11.6227417,46.0617371-21.5284424c2.2490387-1.6272507,4.5035248-3.2585907,6.782486-4.8586273 c2.6749115-1.8776016,5.4443512-3.9790192,8.3770905-6.2035675c13.0996704-9.9383469,27.92453-21.2121124,43.6542053-19.8379211 c18.9759827,1.650383,33.5641174,20.22229,46.436554,36.6070633c4.1198425,5.2450333,8.0111084,10.1989059,11.7744751,14.2228165 c16.313324,17.4467163,28.7435913,24.4434967,47.1740112,24.4434967c5.3756409-0.0006866,11.2642212-0.595932,17.9052124-1.701416 c8.2315063-1.3701019,16.416748-3.0102692,24.3326111-4.5960236c15.6153564-3.1286621,31.7613525-6.3641205,48.3508911-7.4933929 l-0.0952454-1.3905182c-16.6793213,1.1360779-32.8702393,4.3803864-48.5291443,7.5178833 c-7.9049683,1.5837097-16.0779419,3.2218475-24.2876892,4.5878754 c-28.8361206,4.7987671-43.1562195-0.2068176-63.8329468-22.3189545 c-3.7225342-3.9810486-7.5960999-8.9117889-11.6968994-14.1323318 c-13.0466003-16.6079102-27.833374-35.4315262-47.4121094-37.1342926 c-16.2262573-1.4136429-31.3137207,10.0240707-44.6161194,20.1161652c-2.9218445,2.2163849-5.6811066,4.309639-8.3349152,6.1729507 c-2.2844086,1.6034393-4.5450134,3.2388611-6.7994843,4.8701935 c-14.1561584,10.2424393-27.5279236,19.9175262-45.349472,21.2678986 c-15.6589203,1.1857452-31.0640717-4.9899292-45.9644623-10.9615097c-4.8627014-1.949028-9.4560242-3.7898941-14.0758667-5.3953781 c-18.5732727-6.4552689-40.9207916-11.671051-65.8261948-1.4197617 c-9.0444489,3.7238998-17.2256165,8.0314941-25.1367035,12.1975937 c-15.0493698,7.9240112-29.2640228,15.4085541-47.7930756,18.2623749l0.2122504,1.3769073 C19.152195,142.4739838,33.4668503,134.9363708,48.622345,126.9565735z M73.4025803,126.94841 c24.0142212-8.5104218,46.3093567-4.3701782,64.9513321,0.802742c4.7423096,1.3156815,9.5308685,2.8837509,14.5997009,4.5443344 c15.1425629,4.9586334,30.8035126,10.0921021,46.1426849,8.6247101 c18.6331329-1.7748718,32.1375732-11.8105011,46.4352264-22.4359512c2.1156921-1.5721436,4.2436371-3.1538239,6.4028778-4.717804 c2.6347656-1.9088974,5.4042206-4.0885468,8.3369598-6.3967667c12.5132446-9.8485565,28.0809937-22.1039734,43.6705017-20.4175339 c19.3161621,2.0939331,33.7001953,20.9733276,46.3930359,37.6309052 c4.1021423,5.3844986,7.975708,10.4696579,11.7731018,14.6554794 c16.3010864,17.9732513,28.7966614,25.0958862,47.782196,25.0951996c5.2028503-0.0006714,10.8955078-0.5353851,17.28479-1.5286102 c8.2138062-1.2775726,16.4072266-2.8068695,24.329895-4.2858124c15.6711426-2.9252472,31.8742676-5.9498138,48.4230042-7.0185547 l-0.0897827-1.3905182c-16.6317444,1.0741882-32.8770447,4.1069183-48.587677,7.0396423 c-7.9131165,1.4769135-16.0956421,3.0041656-24.2904053,4.2783356 c-29.4769592,4.5844727-43.1956787-0.3877563-63.8207092-23.1257629c-3.7565613-4.1416016-7.6138-9.2036438-11.6968994-14.5636368 c-12.8615417-16.8807144-27.4388123-36.013855-47.3508911-38.1717377 c-16.1378174-1.7565079-31.9695129,10.7023163-44.6820984,20.7080154 c-2.9211731,2.2993851-5.6804199,4.4708633-8.2927246,6.3634338c-2.1633301,1.5667038-4.2960358,3.1517792-6.4164886,4.7273331 c-14.1364288,10.5063934-27.4898376,20.4297714-45.7358856,22.1679153 c-15.0561676,1.4306488-30.5701752-3.6490631-45.5773621-8.5628052c-5.0844879-1.6653442-9.8873291-3.2381744-14.6602478-4.5626984 c-18.8508301-5.230751-41.4092331-9.4138489-65.7894592-0.7728119c-8.8253937,3.1279755-17.011322,6.7777252-24.9278526,10.3077545 c-15.3568573,6.8477936-29.8626747,13.315979-47.8155212,15.72966l0.1850388,1.3809814 c18.1521702-2.4408722,32.7471046-8.9485321,48.1978455-15.8378296 C56.4688072,133.6968842,64.6288834,130.0580139,73.4025803,126.94841z M0.3884454,160.0934906 c18.3984356-2.7177582,34.57164-8.2444305,50.2128601-13.5894775 c27.6258888-9.4396973,53.7211189-18.3569336,87.7083893-10.1968536 c4.9463959,1.1871033,10.0288391,2.6714935,15.4092407,4.2429657c15.0963135,4.4089508,30.700119,8.9696198,45.3794098,7.5607452 c18.8841553-1.810257,32.3518524-11.96698,46.6100464-22.7210007c2.0544739-1.5496979,4.1252747-3.1109695,6.2301025-4.6606674 c2.635437-1.9408646,5.3572845-4.1062241,8.2389679-6.3981247c13.0194092-10.3574066,27.7871399-22.0890045,43.7780151-20.6937332 c19.3188782,1.6925659,33.7763977,21.0610886,46.5331726,38.149292c4.057251,5.4361877,7.8900146,10.5710144,11.5948486,14.7146606 c16.2521362,18.1793823,28.3544922,25.2394257,47.4461365,25.2380676c5.2613525,0,11.0587769-0.5367432,17.6140747-1.5245209 c8.1947632-1.2354126,16.3895264-2.7041626,24.3149109-4.1239166c15.7133179-2.8150482,31.9613647-5.7266846,48.4706421-6.8369141 l-0.0925293-1.3905182c-16.5868225,1.1156769-32.8729553,4.0341187-48.6243896,6.855957 c-7.915863,1.4184113-16.1011047,2.8851166-24.2754517,4.1171112c-29.7654114,4.4858398-43.4773254-0.5149689-63.8139038-23.263855 c-3.664032-4.0980682-7.4790955-9.2084045-11.5186462-14.6194305 c-12.9309692-17.3228989-27.5871277-36.9567413-47.5263977-38.7037201 c-16.5677795-1.4544601-31.5450439,10.4723816-44.7678223,20.9910202c-2.871521,2.2837296-5.5831451,4.4416046-8.1975098,6.3661499 c-2.1088867,1.5531006-4.1837769,3.1177673-6.2430115,4.6708679 c-14.0969696,10.6315689-27.4115906,20.6740036-45.9045868,22.4468307 c-14.4017334,1.3816681-29.8858185-3.1395264-44.8555908-7.5117493 c-5.3974152-1.5762329-10.4954987-3.0647125-15.4745483-4.2606506 c-34.3818359-8.2532806-60.6621094,0.7258606-88.4839172,10.2335968 c-15.5820351,5.3246155-31.6940155,10.8302002-49.9665985,13.5296021L0.3884454,160.0934906z M50.1924553,154.0661163 c27.8435783-9.3349304,54.1422157-18.1501312,88.119278-10.0927734c4.9627075,1.1775818,10.0682831,2.6551666,15.473877,4.219162 c15.0867767,4.3647308,30.6885376,8.8845825,45.3127289,7.4743347 c18.684845-1.7952881,32.1906281-11.8057404,46.4896393-22.4046631c2.0776062-1.5401764,4.168808-3.0905457,6.2913208-4.6252899 c2.6231995-1.8973236,5.3878784-4.0715332,8.3144836-6.3729477c12.5255127-9.8505936,28.1123047-22.1087341,43.6351624-20.3284149 c18.93927,2.1735229,33.4811401,20.4780731,46.3127441,36.6288376c4.1633911,5.2402649,8.095459,10.1900635,11.9322815,14.2704315 c16.6630249,17.722229,28.8782959,24.5713806,47.9563599,24.5713806c5.1334534,0,10.7648926-0.4966125,17.1119995-1.4095612 c8.167572-1.1755371,16.3623352-2.5606079,24.2863464-3.9001007c15.7554932-2.6626434,32.0470886-5.4164581,48.5032959-6.5627441 l-0.0979614-1.3905182c-16.524231,1.1517334-32.849823,3.9109802-48.6380005,6.5797577 c-7.915863,1.3381348-16.1011047,2.7211609-24.2523193,3.8939819 c-29.3694763,4.2286835-43.0977173-0.6591949-63.8547058-22.7359619 c-3.7973938-4.0388794-7.7117615-8.966217-11.8574524-14.1833649 c-12.9989929-16.3623199-27.7313232-34.9070206-47.2447815-37.1458511 c-16.0861206-1.8476639-31.9287109,10.6091156-44.6542053,20.6168594 c-2.9157104,2.2925797-5.6695251,4.4579391-8.2695923,6.3389359c-2.1265869,1.538826-4.2225647,3.0919266-6.304245,4.634819 c-14.1391449,10.480545-27.4939117,20.3794403-45.7937012,22.1379852 c-14.356842,1.372818-29.8300323-3.0966797-44.7923126-7.4260406c-5.4225922-1.5694275-10.5438232-3.0511017-15.539856-4.2361603 c-34.3621216-8.1519165-60.8451157,0.7265472-88.883255,10.1267853 c-15.4901962,5.1933289-31.508297,10.5635376-49.5665855,13.2663269l0.2068081,1.3782654 C18.5685081,164.6684418,34.6451149,159.2785034,50.1924553,154.0661163z M49.9652367,162.7976379 c28.0490227-9.0383301,54.5442696-17.5759583,88.3492126-9.7261047c4.9844818,1.1578522,10.1016235,2.6082306,15.519455,4.1443329 c15.062973,4.2681274,30.6368408,8.6811676,45.2630768,7.3131104 c18.5562592-1.7388153,32.1314392-11.4778442,46.5039215-21.7890015c2.0265808-1.4537811,4.0667725-2.9177551,6.1355286-4.3688202 c2.6585693-1.8639984,5.389267-3.9273071,8.2805023-6.1110382c13.0098572-9.8274689,27.7666931-20.9604111,43.5657349-19.716156 c18.1882324,1.4360886,33.1287537,18.480072,46.3100586,33.517868c4.2518005,4.8497925,8.2668762,9.4308624,12.1227417,13.1649628 c16.7555542,16.2262726,29.4225464,22.5794983,48.7278137,22.5788269 c4.9647522-0.0006866,10.3703308-0.4204254,16.3936157-1.2007141c8.1403503-1.05513,16.3310242-2.2953033,24.250946-3.4939728 c15.7990723-2.3918915,32.1355286-4.8647461,48.5400391-5.9239655l-0.0897827-1.3905029 c-16.464386,1.0632935-32.83078,3.5409088-48.6584167,5.9368896c-7.9131165,1.1979828-16.0956421,2.4367981-24.2223816,3.4891968 c-28.9259338,3.7490845-43.2814026-0.9598846-63.9730835-20.9971313 c-3.8150635-3.693985-7.8124695-8.2539673-12.0438538-13.0819855 c-13.3568115-15.2371216-28.4946289-32.507637-47.2488403-33.9886246 c-16.3487244-1.2864304-31.3069458,10.0172653-44.5140686,19.9937057 c-2.8810425,2.1762543-5.6022034,4.2320862-8.2410431,6.0824738c-2.0728455,1.4537811-4.1171112,2.9197998-6.1477814,4.3769836 c-14.2146454,10.1975403-27.6408386,19.8297729-45.8222656,21.5338898 c-14.356842,1.3428955-29.8123322-3.0313721-44.7528534-7.2668457c-5.4341583-1.5401764-10.5669403-2.9946442-15.5834045-4.1599731 c-34.1825104-7.9389801-60.8539505,0.6557922-89.0921021,9.7567139 c-15.4663849,4.9844818-31.4586353,10.1383514-49.3516159,12.7431793l0.2006855,1.3782654 C18.3950329,172.9720459,34.4444275,167.7998047,49.9652367,162.7976379z M49.8733978,172.3570709 c28.2435913-8.6077118,54.9218292-16.7371674,88.4451447-9.1669006c5.0082855,1.1306305,10.1281586,2.5395203,15.5480194,4.0307159 c15.0289612,4.1341095,30.5640564,8.4070129,45.2270203,7.0995026 c18.4841461-1.6517487,32.1600189-11.030899,46.6392975-20.9604034c1.9150238-1.3136444,3.8443146-2.6368103,5.800827-3.9524841 c2.6490479-1.7823639,5.3293915-3.7096252,8.1675568-5.7504883c12.9418335-9.3056946,27.6211243-19.8563004,43.508606-18.865799 c17.7242737,1.100708,32.8171692,15.9493866,46.1331787,29.0497284c4.3865051,4.3157654,8.52948,8.3927307,12.5812683,11.8193512 c17.7786865,15.0323639,37.0472107,19.4732971,57.3443298,19.4732971 c14.3146667-0.0006866,29.1422729-2.2095795,44.3154602-4.470871c11.9295349-1.7775879,24.2631836-3.6150513,36.3369751-4.2681274 l-0.0762024-1.3918762c-12.1377258,0.6571655-24.5053711,2.500061-36.4662476,4.2824249 c-36.3669128,5.4178314-70.718811,10.5390472-100.5536194-14.6888123 c-4.0123291-3.3926086-8.1376038-7.4512177-12.5050659-11.7486115 c-13.4901428-13.2717743-28.7803345-28.3143311-47.0229797-29.4470139 c-16.414032-1.0272369-31.2783813,9.6839218-44.4093323,19.1249771c-2.8286438,2.0340729-5.5001373,3.9552155-8.1321716,5.7253265 c-1.9592285,1.3184052-3.8919373,2.6436005-5.8110352,3.9599609c-14.324173,9.8233795-27.853775,19.1025391-45.9746552,20.7216187 c-14.4058228,1.2932434-29.8232269-2.9538116-44.733139-7.0552826c-5.4368744-1.4952698-10.571701-2.9082336-15.6105957-4.0463562 c-33.883873-7.6519012-60.7328644,0.5299377-89.1587677,9.1934357 c-15.4915581,4.7212067-31.5110188,9.6029663-49.275425,12.0390778l0.1891205,1.3803101 C18.2555733,181.992691,34.3294601,177.0939331,49.8733978,172.3570709z M49.8733978,182.4042664 c28.429985-8.0927277,55.2851028-15.7357788,88.4499054-8.4886475c5.0287018,1.0993347,10.1410828,2.4551544,15.5527802,3.8912506 c14.9922333,3.9776611,30.4905853,8.0954437,45.2134094,6.8593597 c18.4657898-1.5442505,32.2831573-10.5220337,46.9121094-20.0270538c1.7469788-1.1353912,3.5075684-2.2789612,5.2919617-3.4204865 c2.5857849-1.6544647,5.1518402-3.3892059,7.8682404-5.2259827c13.5139465-9.1369781,27.4748535-18.5889282,43.6154175-17.9759827 c17.2997742,0.6537628,31.8974304,12.5057678,46.0134277,23.9672852c4.5103149,3.6620026,8.7702942,7.1205902,13.0316162,10.134964 c30.6484375,21.6746979,66.9745483,17.1222076,102.0992432,12.7227783 c11.881958-1.4884796,24.1679688-3.027298,35.9900513-3.5055389l-0.0571289-1.3918762 c-11.8792419,0.4802856-24.1951904,2.0231781-36.1057129,3.5150604 c-34.8648376,4.3688202-70.9147644,8.8845825-101.1209717-12.4778748 c-4.2246094-2.9871521-8.4668884-6.4321442-12.9595337-10.0791779 c-13.6275635-11.0655823-29.0742188-23.60672-46.8392944-24.2774963 c-16.5786743-0.6503448-31.3858337,9.3832397-44.4474182,18.2133942c-2.7089081,1.8320313-5.268158,3.5613251-7.838974,5.2062683 c-1.7871094,1.1435699-3.5504303,2.2891693-5.2994537,3.4259338 c-14.4786072,9.4070435-28.1531067,18.2923126-46.2692261,19.8079987 c-14.4833679,1.2088776-29.8633575-2.8715057-44.7406006-6.8178711c-5.4273529-1.4401703-10.5533447-2.8000641-15.611969-3.9055328 c-33.5117569-7.3233185-60.526062,0.3680267-89.1288452,8.5090637 c-15.5514221,4.4273224-31.6321106,9.0049896-49.2931099,11.2336121l0.1741542,1.3823547 C18.139925,191.4378357,34.272316,186.8451996,49.8733978,182.4042664z M49.9148941,192.6024933 c28.6041412-7.5505371,55.6191254-14.6813354,88.4138565-7.7661896 c45.6195374,9.6226959,71.3549042,13.4799347,112.7124329-11.5574493c2.406189-1.4564972,4.8144073-2.9735413,7.2362518-4.5001068 c13.4404602-8.4689331,27.3347168-17.2235718,43.668457-17.2235718c0.1251831,0,0.251709,0,0.3782349,0.001358 c16.9079285,0.1401367,31.7192078,9.6288147,46.043396,18.8052521c4.5932922,2.9429321,8.9335632,5.7225952,13.356781,8.2219696 c30.9450378,17.4861755,67.0629578,13.8629456,101.9958496,10.3601379 c11.9962158-1.2034302,24.4006348-2.4476776,36.1805115-2.750412l-0.0353699-1.3932343 c-11.8329468,0.3047638-24.2632141,1.5517426-36.2852783,2.7572174 c-34.7111206,3.4824066-70.6072693,7.0818176-101.1699829-10.1859741 c-4.390564-2.4810181-8.7131348-5.2504883-13.2901306-8.1825256 c-14.4915161-9.2832336-29.4755859-18.8821259-46.7848816-19.0256653 c-16.8807068-0.1693878-31.0865173,8.7961426-44.8004761,17.4371796c-2.4150238,1.5211334-4.8157654,3.0341034-7.2144623,4.4865112 c-40.9071808,24.7645874-66.4337006,20.9359131-111.7042542,11.3860168 c-33.1110611-6.9845428-60.2865906,0.1884308-89.0567245,7.7825165c-15.625576,4.124588-31.7824554,8.389328-49.3516159,10.4002686 l0.1578272,1.3836975C18.0351601,201.0176697,34.241703,196.7400055,49.9148941,192.6024933z M49.9319038,202.6170349 c28.7769356-7.036911,55.9565468-13.682663,88.4016113-7.0763702 c45.6175079,9.2893524,71.3399353,13.0418243,112.4668427-10.477829 c43.5031738-24.8815918,64.9486389-19.7685394,110.8423157-0.0231323 c31.2647705,13.4493408,66.8656921,10.751297,101.2965088,8.1417084 c12.2683411-0.9292755,24.9543762-1.8912048,36.9519653-2.0367889l-0.0163269-1.3932343 c-12.0424805,0.1462708-24.7516479,1.1095581-37.0417786,2.0408783 c-34.2607422,2.5980225-69.6902161,5.2824402-100.640686-8.0328674 c-46.35495-19.944046-68.0276184-25.103363-112.0831604,0.0938873 c-40.6901703,23.2720337-66.2132874,19.5440369-111.4981232,10.3227081 c-32.7464294-6.6709137-60.0757065,0.0136108-89.0104675,7.087265c-15.688839,3.8368378-31.9130688,7.8036041-49.3856277,9.6124878 l0.1428608,1.3864288C17.9263134,210.4424133,34.196804,206.4640656,49.9319038,202.6170349z M499.8816223,194.9773865 c-12.3962402,0.0238037-25.4088135,0.7129364-37.9927979,1.3796234c-33.65802,1.7830353-68.4602966,3.625946-99.8855896-6.2219238 c-45.568512-14.2820129-69.9432983-18.1569366-112.0702362,4.6837921 c-40.4786072,21.9488678-67.3371277,18.1086273-111.3260193,9.4294891 c-32.4695435-6.4042511-59.9668503-0.1333313-89.0791702,6.5062866 c-15.7119675,3.5837708-31.9593277,7.2893066-49.3073959,8.9437714l0.1319762,1.3864288 c17.4385452-1.6626282,33.7301216-5.3783722,49.4856339-8.9716492 c28.9633293-6.6062927,56.3225441-12.8452301,88.4995575-6.4974518 c44.3031921,8.7403564,71.3589935,12.6057739,112.2593689-9.5723572 c41.6548157-22.5849457,65.8064575-18.7399445,110.9899292-4.5790253 c31.6688538,9.925415,66.5976563,8.0750275,100.37677,6.2838287c12.5663147-0.665329,25.559845-1.353775,37.9206848-1.3775787 L499.8816223,194.9773865z M462.0384827,201.4693909c-33.4117432,1.1122742-67.9582214,2.2626343-100.1699524-4.9831238 C316.006134,186.1696777,290,183.5934143,249.8125763,204.4606171c-40.4922028,21.024353-67.30513,17.2691498-111.208313,8.8206329 c-32.3443756-6.2212372-60.0437317-0.2285767-89.3716965,6.1178436 c-15.6555099,3.3878479-31.8436813,6.8906555-49.0094299,8.4614563l0.1265339,1.3877869 c17.2507858-1.578949,33.4811363-5.0912933,49.1781387-8.4879761c29.1830673-6.3144531,56.7484055-12.2826233,88.813179-6.1103668 c44.2072754,8.5070343,71.2093201,12.2853546,112.1137848-8.9526062 c39.7833557-20.6576843,65.5853577-18.0923004,111.1090088-7.8518982 c32.3831482,7.2838593,67.0221252,6.1314392,100.5223083,5.0157623c12.476532-0.4149628,25.3462524-0.8408356,37.7955322-0.8088531 l0.0027161-1.3932343C487.4554443,200.6367188,474.5299683,201.0530548,462.0384827,201.4693909z M361.8182068,202.7973175 c-44.2882385-7.752594-71.3324585-11.1370239-112.0471191,9.4546661 c-40.7146606,20.5930481-67.4398499,16.9038391-111.168869,8.6104279 c-32.4321289-6.1511841-60.3974762-0.2455902-90.0070801,6.0076294 c-15.4793129,3.2687988-31.4844875,6.648468-48.3740387,8.2328644l0.1306156,1.3877869 c16.9684658-1.5925446,33.0137787-4.9803925,48.5311852-8.2573547 c29.4694672-6.2232819,57.3041992-12.1016693,89.4594498-6.0021973 c44.0290375,8.3512421,70.9406128,12.0615387,112.0573273-8.7355957 c40.3200836-20.3937225,67.1765594-17.0283356,111.1790619-9.3254089 c34.3287659,6.0096741,70.2467041,5.3089752,104.9877625,4.6327667c10.9580994-0.2129211,22.2903442-0.434021,33.3164978-0.434021 v-1.3932343c-11.0397339,0-22.3788147,0.2210999-33.3437195,0.4347076 C431.868988,208.0852051,396.0177307,208.7845459,361.8182068,202.7973175z M47.878109,234.4668427 c29.9075737-6.1130829,58.1586494-11.8846588,90.4656067-5.8321228 c44.0922852,8.2641602,71.0365295,11.9288788,112.055954-8.8152008 c40.4996796-20.4801178,67.2976532-17.0351257,111.1763458-9.1839142 c37.5397339,6.717865,77.509491,6.1532288,116.1635437,5.6083069c7.4396362-0.1047516,14.831665-0.208847,22.1488647-0.2605438 l-0.0108948-1.3932343c-7.3199158,0.0516968-14.7146606,0.1557922-22.1570129,0.2605438 c-38.5887451,0.5449219-78.4891052,1.1082001-115.8995972-5.5865326 c-42.8786621-7.6716309-71.2344971-11.3274994-112.0498352,9.3118134 c-40.6194153,20.5406647-67.3752136,16.8977051-111.1702271,8.6900177 c-32.577034-6.1062775-60.9573593-0.3047791-91.0016708,5.8355255 c-15.1983528,3.1068726-30.9144039,6.3191986-47.3801346,7.9172058l0.1346974,1.3864288 C16.8922729,240.8003387,32.6443825,237.5805206,47.878109,234.4668427z M47.1699257,239.7377167 c30.3035088-5.7253113,58.9232903-11.1329346,91.1765137-5.2184906 c44.1698456,8.1008911,71.1515045,11.6785278,112.0532379-8.9995575 c40.7051239-20.5774078,67.4323578-16.9813995,111.1708832-8.8553314 c43.3249512,8.0485077,92.1928711,8.2709656,135.3082886,8.4675598l3.0014343,0.0136108l0.0054321-1.3932343l-3.0000916-0.0136108 c-45.1603394-0.2054443-91.8594971-0.4183655-135.0592651-8.4444275 c-42.7507629-7.9423828-71.0303955-11.7567749-112.0552673,8.9818573 c-40.5017395,20.4746857-67.2969818,16.920166-111.1729431,8.8730164 c-32.5069656-5.9640961-61.2526093-0.5306244-91.6867294,5.2198639 c-15.0241966,2.8388519-30.5599728,5.7743073-46.6882782,7.2525787l0.1265339,1.3877869 C16.5446453,245.5242615,32.1137543,242.5826874,47.1699257,239.7377167z M46.6773987,244.3045044 c30.6572571-5.135498,59.6158218-9.9846039,91.6724396-4.2735748 c44.2569275,7.8852386,71.2814331,11.3424683,112.0498352-9.2580719 c40.9255524-20.6801147,67.5792999-16.8827362,111.165451-8.3940887 c36.8934631,7.1852264,80.8388367,11.3274994,138.2974548,13.0370789l0.0408325-1.3932343 c-57.381073-1.7068481-101.2543335-5.8409729-138.0715942-13.0112305 c-42.6079102-8.2988434-70.8154602-12.3261719-112.06073,8.5179138 c-40.3711243,20.400528-67.2112732,16.9636993-111.1763458,9.1301727 c-32.2960739-5.752533-61.3668976-0.8843842-92.1479645,4.2708588 c-14.9241943,2.4993744-30.3572464,5.0844727-46.2161598,6.3559418l0.1115675,1.3891449 C16.2609653,249.3985138,31.7232685,246.8086548,46.6773987,244.3045044z M46.332489,248.4318237 c30.972908-4.4164429,60.2274094-8.5906982,92.0214233-3.1143646 c44.3508148,7.6355743,71.4188538,10.9574127,112.0457611-9.5614777 c41.1432343-20.7821655,67.723526-16.756897,111.1586456-7.8518982 c12.2914734,2.5197906,24.7516785,3.4551849,36.8009644,4.3592987c9.3743896,0.7041016,19.0698853,1.4313202,28.6224976,2.9007568 c8.1947632,1.2598877,16.3772888,2.7735443,24.2904358,4.2368469c15.7051697,2.9041443,31.9464111,5.9069519,48.5672302,6.9539185 l0.0870667-1.3905182c-16.5378418-1.0415192-32.7355347-4.0368347-48.4012451-6.9335175 c-7.9226379-1.465332-16.1160583-2.9803467-24.3312378-4.2436371c-9.6070557-1.4775848-19.3283997-2.20755-28.7299805-2.9130096 c-12.0071106-0.9006958-24.4223938-1.8326874-36.6254578-4.3347931 c-43.7371826-8.9669037-70.5079346-13.0173492-112.0675049,7.9729919 c-40.233017,20.3209229-67.1221466,17.0174408-111.1804352,9.4322205 c-32.0103455-5.5137482-61.3716507-1.3258972-92.4554443,3.1082306 c-14.8731709,2.1204681-30.2531624,4.3137207-45.8936996,5.3300781l0.0897983,1.3905029 C16.0255852,252.7537079,31.432785,250.556366,46.332489,248.4318237z M46.0372429,252.394516 c31.2599907-3.6524811,60.7866096-7.1008606,92.320755-1.8680725 c43.1500854,7.1613922,71.6487885,10.5138702,112.0409851-9.8798523 c41.3670654-20.8842163,67.8711548-16.6194763,111.1525269-7.2825012 c10.9934998,2.3708038,22.2169189,3.4116516,33.0716248,4.4178009c10.630188,0.985733,21.6223145,2.0048065,32.3205566,4.2749329 c8.2723083,1.7551575,16.4521179,3.8184662,24.3638916,5.8137665c15.5636597,3.9259491,31.6565857,7.9852295,48.5073853,9.6526337 l0.1360474-1.3864441c-16.7460022-1.6571808-32.0743103-5.5232697-48.3032837-9.6165619 c-7.9226685-1.998703-16.1160583-4.0654144-24.4155884-5.8266907c-10.7771606-2.2864532-21.8100891-3.3096008-32.4797668-4.2987518 c-10.8138733-1.0027466-21.9964905-2.0388184-32.9069824-4.3926239 c-43.5929565-9.4029694-70.2875061-13.6956024-112.0743103,7.4008636 c-40.0860748,20.2365723-67.0241852,17.0773315-111.1845093,9.7492371 c-31.7307587-5.2674866-61.3512497-1.8061676-92.7105637,1.858551 c-14.8350754,1.7326965-30.1749287,3.5245819-45.6236267,4.2729034l0.068029,1.391861 C15.8160553,255.92453,31.179718,254.1299286,46.0372429,252.394516z M45.6249886,256.4680786 c30.1708488-2.791214,61.3709755-5.6776886,92.7370911-0.6625977 c43.2453461,6.9165039,71.7930145,10.1233826,112.0362396-10.1846161 c41.5799866-20.9808044,68.0092468-16.4875031,111.1463928-6.7375793 c10.1036682,2.2830505,20.4685669,3.3925934,30.4933167,4.466095c11.5173035,1.2333679,23.4264526,2.5089111,34.8703003,5.574295 c8.3621216,2.2401886,16.5391846,4.836853,24.4468689,7.3471375c16.1106262,5.1157532,31.3287048,9.9471741,48.4366455,12.2132263 l0.182312-1.3809814c-16.9854736-2.2497253-32.1464233-7.063446-48.1985168-12.1601868 c-7.9212952-2.5150299-16.1133423-5.1164551-24.5067749-7.3648071c-11.548584-3.0939636-23.5121765-4.374939-35.0825195-5.6137543 c-9.9852905-1.0694122-20.3093872-2.174881-30.334137-4.4402466c-43.4473877-9.8186188-70.0739136-14.3439178-112.0811157,6.853241 c-39.9398193,20.1535797-66.9275818,17.1303558-111.1885986,10.0526276 c-31.541626-5.0457001-62.8308716-2.1490326-93.0860748,0.6510468c-14.750042,1.3646698-30.0021362,2.7762604-45.2331429,3.2810211 l0.0462597,1.3918762C15.5813551,259.2477417,30.8545399,257.8347778,45.6249886,256.4680786z M44.8501396,260.9273987 c30.5450096-2.2007446,62.1322212-4.4776917,93.5153351,0.3748169 c43.3385315,6.7015381,71.9331512,9.7812195,112.0335083-10.4465179 c41.7779541-21.0719757,68.1419067-16.3793335,111.1402893-6.2709045 c9.5430908,2.2435913,19.3596802,3.3912354,28.8524475,4.5014648c12.0969238,1.4143219,24.6047058,2.8769531,36.4866638,6.6273804 c8.4559937,2.6687775,16.6249084,5.7355194,24.5257874,8.7015839c15.9351196,5.9831543,30.9872131,11.6343079,48.3699646,14.382019 l0.2176819-1.3755493c-17.2426147-2.726593-32.2307434-8.3532715-48.0978394-14.3105774 c-7.9172058-2.9728699-16.1051636-6.0464172-24.5965271-8.7267609 c-12.0071411-3.7898865-24.5829773-5.2599945-36.7438354-6.6817932 c-9.4546509-1.1061554-19.2304077-2.2490387-28.6959534-4.4742737 c-43.3140564-10.1812134-69.8766479-14.9058228-112.085907,6.3838348 c-39.801712,20.0753479-66.8350525,17.171875-111.1933441,10.3132019 c-31.5409546-4.8769989-63.205719-2.5953064-93.8282776-0.3877563c-14.5371113,1.0476379-29.5687923,2.1313477-44.4787025,2.449707 l0.0299327,1.3932495C15.2466526,263.0607605,30.2960205,261.9763794,44.8501396,260.9273987z M452.0028381,270.8385315 c-7.9104004-3.3279724-16.09021-6.7688904-24.6849976-9.7771301c-12.215271-4.2776489-25.1217346-5.8368835-37.6009521-7.3444061 c-9.1839294-1.1095581-18.6794128-2.2572021-27.8551636-4.4776611 c-43.1956787-10.4560547-69.7011108-15.3296509-112.0899658,6.0450439 c-39.6710968,20.0045929-66.7493439,17.1936493-111.1960754,10.5009613 c-31.8552399-4.7953796-64.11866-2.9327393-95.319458-1.1292725c-14.0711136,0.8129272-28.6204681,1.6530762-42.9807053,1.877594 l0.0217693,1.393219c14.3894873-0.2251587,28.9538097-1.0666809,43.0392075-1.8803101 c31.1314163-1.7973328,63.3213654-3.6565552,95.0323868,1.1170349 c43.4194946,6.5362244,72.0596924,9.5186157,112.0301056-10.6356506c41.954834-21.1542969,68.2575378-16.3119812,111.1362-5.934845 c9.2532959,2.2401886,18.7909851,3.3925934,28.0143433,4.5069122c12.4057617,1.4986725,25.2346497,3.049057,37.3084412,7.2763824 c8.5539551,2.9939575,16.7133484,6.4266968,24.6047058,9.746521c15.7582397,6.6287231,30.6416321,12.8901062,48.3033142,15.9031067 L500,286.6532288C482.4961548,283.666748,467.6848755,277.4353027,452.0028381,270.8385315z M427.3273621,267.5513611 c-12.2016602-4.466095-25.166626-5.9811096-37.705719-7.447113c-9.1580811-1.0708008-18.6276855-2.1776123-27.7571716-4.4239349 c-43.0922852-10.6043549-69.5446777-15.5595856-112.0927124,5.8913116 c-39.5615692,19.9433594-66.6772308,17.1834412-111.1974335,10.5866699 c-32.6158066-4.834137-65.85952-3.1041565-98.005249-1.4306641c-13.2071438,0.6864319-26.8632813,1.3973083-40.2956009,1.6435852 l0.025851,1.3932495c13.4554491-0.2469482,27.1238308-0.9578552,40.3418579-1.6456299 c32.0797386-1.6694336,65.2520294-3.3953247,97.7290497,1.4177246c43.489563,6.4436951,72.16922,9.3737183,112.0287476-10.7213745 c42.1058655-21.2284393,68.3582458-16.3085785,111.1334839-5.7824707 c9.2138367,2.2674255,18.7270203,3.3796997,27.9272461,4.4552307c12.4588318,1.4565125,25.3421631,2.9626465,37.3887329,7.3722839 c8.6600952,3.1694946,16.8113098,6.8205872,24.694519,10.3512878 c15.5786438,6.9777527,30.2946472,13.5683899,48.2270813,16.5208435l0.2258606-1.374176 c-17.7541809-2.9238892-32.3899536-9.4784851-47.8842163-16.4181213 C444.2067261,274.3991699,436.0323486,270.737854,427.3273621,267.5513611z M427.3192139,274.4379272 c-12.3962402-4.371521-25.5244751-5.9538879-38.2200317-7.4845276c-8.9825439-1.0823364-18.2698669-2.2021179-27.2415161-4.2994385 c-42.8773193-10.0240631-69.2235718-14.6983337-112.0729828,5.7790527 c-39.9282379,19.0834961-68.2745514,16.3528137-111.2151184,10.3125305 c-32.98452-4.6382141-66.572464-2.9830933-99.0562973-1.383728c-12.8595181,0.6326904-26.1564598,1.2878113-39.2404709,1.5442505 l0.0272116,1.3932495c13.1044207-0.2571411,26.4122486-0.912262,39.2819672-1.5462952 c32.4164848-1.5966492,65.9404755-3.2470398,98.7930298,1.3721313 c43.1997681,6.0756836,71.7209015,8.8213196,112.0110626-10.434967 c42.4290009-20.2767029,68.5834198-15.631012,111.1532135-5.679718c9.0465088,2.1150208,18.3732605,3.2388611,27.3925476,4.3259583 c12.6221008,1.5217896,25.67276,3.094635,37.9247742,7.4158325c8.5635071,3.0198059,16.7215271,6.4824829,24.6115417,9.831543 c15.7391663,6.6804504,30.6062317,12.9908142,48.2978516,16.0147095L500,300.2256775 c-17.5310669-2.997345-32.324646-9.2764282-47.9876404-15.9242249 C444.103302,280.9442444,435.9235229,277.4727173,427.3192139,274.4379272z M427.3001709,281.1687317 c-12.548645-4.0150757-25.7489624-5.4953918-38.513916-6.9267273c-8.875061-0.9945679-18.0521851-2.0238647-26.943573-3.8959961 c-41.671814-8.7750549-70.008606-12.7989807-112.0328217,5.2770081 c-39.3363953,16.9215088-68.2718353,14.8364258-111.2498169,9.394104 c-33.1321487-4.1973877-66.8486633-2.7021179-99.4542694-1.2557983 c-12.7255001,0.5639343-25.8836632,1.147644-38.8322983,1.3850708l0.025851,1.393219 c12.966321-0.2380981,26.1340084-0.8217773,38.868351-1.3864441c32.5477829-1.4442444,66.2030716-2.9354248,99.2168579,1.2463074 c43.211319,5.4722595,72.3106995,7.5648193,111.9763641-9.4961548c40.2445679-17.313385,65.9595337-14.71875,111.1947021-5.1940308 c8.9566956,1.8857727,18.1678162,2.918457,27.075531,3.9177856c12.6969299,1.4231873,25.8265076,2.8953247,38.2445374,6.8682251 c8.4655151,2.7082214,16.6330872,5.818512,24.5325928,8.8267517c15.9174194,6.0613708,30.953186,11.7866821,48.3645325,14.5745239 l0.2203979-1.3755493c-17.2698364-2.7653809-32.2402954-8.4655151-48.0896912-14.5010376 C443.9876709,287.0056152,435.8010559,283.8878479,427.3001709,281.1687317z M427.2715759,287.7614136 c-12.6248169-3.4511108-25.7911377-4.6946716-38.5247803-5.8974304c-8.8587341-0.8367615-18.020874-1.7020874-26.92453-3.3034973 c-40.4554443-7.2763672-70.1038513-10.8968811-111.9770355,4.4892273 c-38.9697113,14.3167114-69.369812,12.4656372-111.299469,8.0076904 c-33.1634445-3.5266113-66.8820038-2.2687683-99.4862518-1.0517273 c-12.7091713,0.4741821-25.8503284,0.9646606-38.7839966,1.1653442l0.0217693,1.3932495 c12.9486332-0.2013855,26.0979538-0.691864,38.8139267-1.1660156c32.5566254-1.2156982,66.2234802-2.4714966,99.2876053,1.04422 c42.1262512,4.4797058,72.6753387,6.3369141,111.9266968-8.0852356 c41.5384979-15.2636414,71.0167999-11.6635742,111.2491302-4.425293 c8.9621582,1.6116333,18.1528625,2.4796753,27.0415344,3.3191528c12.6737976,1.1972961,25.7789001,2.4347534,38.2880554,5.8545532 c8.3730164,2.2878418,16.5487366,4.9368896,24.4564209,7.4981689c16.092926,5.2137451,31.2933044,10.1376648,48.4284668,12.4608765 l0.1877441-1.381012c-17.011322-2.3061829-32.1545715-7.211731-48.1876526-12.4050598 C443.8679504,292.7118835,435.6759033,290.058075,427.2715759,287.7614136z M249.8874054,290.6213379 c-38.6091614,11.4105225-70.5065765,9.8233948-111.3559265,6.3355408 c-32.9593658-2.8143616-66.4738312-1.808197-98.8835144-0.8340149c-12.9023743,0.387085-26.2442169,0.7877502-39.3697243,0.9421997 l0.016327,1.393219c13.1384354-0.1544189,26.4863987-0.5551147,39.3948936-0.9428711 c32.371582-0.9721375,65.8438797-1.9769287,98.7236404,0.8292542c39.6744995,3.3885498,73.1073303,5.0681763,111.8688812-6.3872375 c57.7906189-17.0786743,115.7662659-5.1865234,171.8330078,6.3124084 c25.4060974,5.2110291,51.6775208,10.5996094,77.6972351,13.2704163l0.14151-1.3864136 c-25.9503174-2.6633301-52.1863708-8.0444336-77.5584717-13.2486572 C366.1611633,285.3715515,308.0140991,273.4440308,249.8874054,290.6213379z M249.9357147,298.2494507 c-37.8833008,8.34375-72.8733215,7.0001831-111.4192047,4.5558777 c-32.5607071-2.0646667-65.6717682-1.3217773-97.6909637-0.6033936 c-13.2887802,0.2979431-27.030632,0.6061401-40.5445862,0.7095337l0.0108846,1.393219 c13.5241594-0.1033936,27.2707729-0.4115601,40.5649948-0.7102051c31.9913063-0.717041,65.0697021-1.4592285,97.571228,0.6013794 c38.6526947,2.4510803,73.7447662,3.7980347,111.8069763-4.5858459 c56.7327576-12.4962463,113.9804993-3.9252625,169.3438416,4.3640747 c26.2659607,3.9320679,53.4272156,7.9988403,80.257843,9.787323l0.0925293-1.3905334 c-26.7734985-1.7843933-53.9048157-5.846405-80.1435852-9.7750854 C364.2958069,294.2874451,306.9161072,285.6980896,249.9357147,298.2494507z M249.9833374,305.8414612 c-55.8885193,8.2410278-115.1335907,6.3471069-172.4235077,4.5144043 c-25.5006599-0.8156738-51.8652878-1.6639709-77.2761459-1.5632935l0.0054423,1.393219 c25.3843288-0.0884399,51.7380714,0.7476501,77.2258072,1.5626221 c57.3525009,1.8347473,116.6594772,3.7307129,172.6711426-4.5286865 c55.1259155-8.1287842,111.0185242-2.7020874,165.0715942,2.5449829 c27.7109375,2.6905518,56.3660889,5.472229,84.6022034,6.4015198l0.0462646-1.3918762 c-28.1925659-0.9279175-56.8246155-3.7075806-84.5137634-6.3960876 C361.2549133,303.1237183,305.272522,297.6888733,249.9833374,305.8414612z M250.0275574,313.3049316 c-57.0103302,4.7273254-115.8655853,3.5796814-172.7833862,2.4701233 c-25.2877274-0.4925232-51.4094925-0.9864197-76.9584503-0.9830017l0.0013606,1.393219 c25.4850121-0.0333252,51.6482735,0.4898071,76.9305649,0.9830322 c56.9531784,1.1109009,115.843132,2.2599182,172.9255676-2.4749146 c52.6938629-4.3694763,106.2694244-1.5802917,158.0816498,1.1163635 c30.0361328,1.563324,61.0954285,3.1803589,91.6540527,3.3858032l0.0081787-1.393219 c-30.5259705-0.2054749-61.5689392-1.8211365-91.5901489-3.3837585 C356.4411926,311.7191772,302.819397,308.9293213,250.0275574,313.3049316z M185.2925415,321.6126404 c-60.6423798-0.2816467-123.3494415-0.5734863-185.0054626-0.619751l-0.0013606,1.393219 c61.6539764,0.0462646,124.3596802,0.3381042,185.0007019,0.6190796 c66.4670258,0.3088379,134.3810272,0.6245117,202.3365326,0.6245117c37.4880371,0,74.9978333-0.0959473,112.2641296-0.3421936 l-0.0081787-1.3932495C395.0625916,322.5854492,288.4230957,322.0908813,185.2925415,321.6126404z M147.7296753,327.54953 c-49.1482162-0.0306396-98.2957458-0.0612488-147.4432678-0.0707703v1.3932495 c49.1468468,0.0095215,98.2943802,0.0401306,147.4425812,0.0707397 c58.9505005,0.0360413,118.9221344,0.0727844,179.1372833,0.0727844c57.6817627,0,115.5866699-0.0339966,173.0180664-0.1347046 l-0.0027161-1.393219C382.5003662,327.6937256,263.1496582,327.6195984,147.7296753,327.54953z"/></g></svg>