<?xml version="1.0" encoding="UTF-8" standalone="no"?><svg xmlns="http://www.w3.org/2000/svg" xmlns:xlink="http://www.w3.org/1999/xlink" contentScriptType="text/ecmascript" fill="#000000" width="214.3" zoomAndPan="magnify" contentStyleType="text/css" viewBox="-3.9 -0.1 214.3 265.8" height="265.8" data-name="Layer 2" preserveAspectRatio="xMidYMid meet" version="1"><g id="change1_1"><path fill="#ffffff" d="M83.127,265.723a1.5,1.5,0,0,1-.763-.209L55.172,249.429a1.5,1.5,0,0,1-.536-2.039L141.6,96.254l-20.93-12.269a1.5,1.5,0,0,1-.161-2.479l87.319-67.787a1.5,1.5,0,0,1,2.4,1.4l-15.7,107.616a1.5,1.5,0,0,1-2.253,1.072l-20.514-12.237L84.431,264.965a1.5,1.5,0,0,1-.919.708A1.48,1.48,0,0,1,83.127,265.723ZM57.975,247.6l24.6,14.554,87.33-153.4a1.5,1.5,0,0,1,2.072-.546l19.9,11.871,14.84-101.71L124.1,82.518l20.3,11.9a1.5,1.5,0,0,1,.541,2.042Z"/></g><g id="change1_2"><path fill="#ffffff" d="M55.934,249.638a1.492,1.492,0,0,1-.721-.185l-24.8-13.641a1.5,1.5,0,0,1-.567-2.081L119.378,83.2,98.518,70.436a1.5,1.5,0,0,1-.147-2.456L184.07.323a1.5,1.5,0,0,1,1.667-.129l23.744,13.4a1.5,1.5,0,1,1-1.474,2.612L185.14,3.3,101.919,69l20.289,12.411a1.5,1.5,0,0,1,.506,2.046l-89.5,150.473,23.442,12.893a1.5,1.5,0,0,1-.725,2.814Z"/></g><g id="change1_3"><path fill="#ffffff" d="M28.39,165.861a18.454,18.454,0,0,1-10.475-3.018c-12.635-8.5-11.47-32.425,2.6-53.328S56.3,78.523,68.936,87.026s11.471,32.427-2.6,53.33h0C55.662,156.224,40.568,165.861,28.39,165.861Zm29.9-78.92C47.2,86.941,33.113,96.162,23,111.19c-13.143,19.53-14.672,41.585-3.41,49.165s31.118-2.143,44.261-21.674h0C77,119.15,78.524,97.1,67.262,89.516A15.8,15.8,0,0,0,58.289,86.941Z"/></g><g id="change1_4"><path fill="#ffffff" d="M18.133,162.657a1.5,1.5,0,0,1-.87-.279c-1.342-.959-2.62-1.915-3.941-2.9-1.431-1.07-2.914-2.179-4.586-3.371-12.6-8.982-11.442-32.4,2.629-53.306,6.738-10.013,15.4-17.886,24.393-22.17,9.252-4.409,17.786-4.521,24.032-.318,1.822,1.226,3.716,2.657,5.548,4.041,1.229.928,2.449,1.85,3.636,2.7a1.5,1.5,0,0,1-1.749,2.438c-1.207-.866-2.447-1.8-3.695-2.745-1.8-1.36-3.661-2.766-5.414-3.946-5.331-3.587-12.812-3.4-21.068.537C28.534,87.392,20.3,94.9,13.854,104.473.916,123.7-.6,145.764,10.477,153.661c1.693,1.207,3.193,2.329,4.642,3.412,1.3.974,2.564,1.918,3.888,2.863a1.5,1.5,0,0,1-.874,2.721Z"/></g><g id="change1_5"><path fill="#ffffff" d="M160.666,255.17a18.643,18.643,0,0,1-10.585-3.074c-12.635-8.5-11.47-32.426,2.6-53.329s35.791-30.99,48.424-22.487c6.247,4.2,9.357,12.151,8.757,22.382-.583,9.943-4.615,20.933-11.353,30.947s-15.4,17.886-24.393,22.17A31.59,31.59,0,0,1,160.666,255.17Zm29.79-78.976c-11.089,0-25.177,9.221-35.29,24.249-13.143,19.529-14.672,41.585-3.409,49.165,5.329,3.587,12.812,3.4,21.066-.537,8.515-4.057,16.752-11.564,23.194-21.138h0c6.443-9.573,10.3-20.031,10.847-29.446.535-9.129-2.106-16.132-7.437-19.719A15.8,15.8,0,0,0,190.456,176.194Z"/></g><g id="change1_6"><path fill="#ffffff" d="M150.3,251.91a1.492,1.492,0,0,1-.871-.28c-1.342-.959-2.621-1.915-3.942-2.9-1.431-1.069-2.914-2.178-4.586-3.37-12.595-8.982-11.44-32.4,2.631-53.307,6.737-10.012,15.4-17.885,24.393-22.17,9.25-4.407,17.784-4.521,24.032-.317,1.823,1.227,3.72,2.659,5.553,4.045,1.226.927,2.445,1.847,3.63,2.7a1.5,1.5,0,0,1-1.75,2.438c-1.2-.864-2.442-1.8-3.688-2.741-1.8-1.362-3.665-2.769-5.421-3.951-5.328-3.586-12.811-3.394-21.066.537-8.515,4.057-16.752,11.564-23.195,21.138-12.937,19.225-14.453,41.29-3.377,49.188,1.692,1.207,3.192,2.328,4.64,3.411,1.3.974,2.566,1.918,3.89,2.864a1.5,1.5,0,0,1-.873,2.721Z"/></g></svg>