<?xml version="1.0" encoding="UTF-8" standalone="no"?><svg xmlns="http://www.w3.org/2000/svg" xmlns:xlink="http://www.w3.org/1999/xlink" contentScriptType="text/ecmascript" fill="#000000" width="354.6" zoomAndPan="magnify" contentStyleType="text/css" viewBox="0.0 0.0 354.6 307.2" height="307.2" preserveAspectRatio="xMidYMid meet" version="1"><defs><clipPath id="a"><path d="M 0 153 L 266 153 L 266 307.199219 L 0 307.199219 Z M 0 153"/></clipPath><clipPath id="b"><path d="M 177 0 L 354.601562 0 L 354.601562 154 L 177 154 Z M 177 0"/></clipPath><clipPath id="c"><path d="M 177 153 L 354.601562 153 L 354.601562 307.199219 L 177 307.199219 Z M 177 153"/></clipPath></defs><g><g id="change1_1"><path fill="#ffffff" d="M 266 0.101562 L 266 0 L 88.597656 0 L 0 153.601562 L 177.300781 153.601562 L 266 0.101562"/></g><g id="change2_1" clip-path="url(#a)"><path fill="#004081" d="M 0 153.601562 L 88.597656 307.199219 L 266 307.199219 L 266 307.101562 L 177.300781 153.601562 L 0 153.601562"/></g><g id="change3_1" clip-path="url(#b)"><path fill="#73c7dd" d="M 354.601562 153.601562 L 266 0.101562 L 177.300781 153.601562 Z M 354.601562 153.601562"/></g><g id="change4_1" clip-path="url(#c)"><path fill="#0086c4" d="M 177.300781 153.601562 L 266 307.101562 L 354.601562 153.601562 Z M 177.300781 153.601562"/></g></g></svg>